<svg width="92" height="80" viewBox="0 0 92 80" fill="none" xmlns="http://www.w3.org/2000/svg">
<path d="M71.626 14.6694C74.3223 14.6694 76.8519 15.1747 79.215 16.1851C81.6083 17.1658 83.6836 18.5329 85.4407 20.2863C87.2281 22.01 88.6217 24.0458 89.6215 26.3936C90.6515 28.7116 91.1666 31.1932 91.1666 33.8381V79.4864H78.1698V33.8381C78.1698 32.9466 77.988 32.1144 77.6245 31.3418C77.2912 30.5691 76.8216 29.9004 76.2157 29.3357C75.6401 28.7413 74.9585 28.2807 74.1708 27.9538C73.3831 27.6269 72.5348 27.4634 71.626 27.4634C70.7171 27.4634 69.8688 27.6269 69.0811 27.9538C68.2935 28.2807 67.5967 28.7413 66.9908 29.3357C66.4151 29.9004 65.9607 30.5691 65.6275 31.3418C65.2942 32.1144 65.1276 32.9466 65.1276 33.8381V79.4864H52.0854V33.8381C52.0854 32.9466 51.9187 32.1144 51.5855 31.3418C51.2522 30.5691 50.7827 29.9004 50.1768 29.3357C49.6011 28.7413 48.9195 28.2807 48.1318 27.9538C47.3441 27.6269 46.4958 27.4634 45.587 27.4634C44.6781 27.4634 43.8298 27.6269 43.0422 27.9538C42.2545 28.2807 41.5577 28.7413 40.9518 29.3357C40.3762 29.9004 39.9217 30.5691 39.5885 31.3418C39.2552 32.1144 39.0886 32.9466 39.0886 33.8381V79.4864H26.0464V33.8381C26.0464 31.1932 26.5463 28.7116 27.546 26.3936C28.5761 24.0458 29.9697 22.01 31.7268 20.2863C33.5142 18.5329 35.5895 17.1658 37.9525 16.1851C40.3459 15.1747 42.8907 14.6694 45.587 14.6694C48.0106 14.6694 50.3434 15.1004 52.5852 15.9622C54.8271 16.7943 56.8418 18.0128 58.6292 19.6176C60.4166 18.0128 62.4161 16.7943 64.6277 15.9622C66.8696 15.1004 69.2023 14.6694 71.626 14.6694Z" fill="white"/>
<path d="M19.5406 0C22.2369 0 24.7666 0.505222 27.1296 1.51567C29.523 2.49639 31.5982 3.86346 33.3553 5.61688C35.1428 7.34058 36.5364 9.37632 37.5361 11.7241C38.5662 14.0422 39.0812 16.5237 39.0812 19.1687V79.485H26.039V19.1694C26.039 18.2778 25.8724 17.4457 25.5391 16.673C25.2059 15.9003 24.7363 15.2316 24.1304 14.667C23.5548 14.0726 22.8731 13.612 22.0854 13.285C21.2977 12.9581 20.4495 12.7947 19.5406 12.7947C18.6317 12.7947 17.7835 12.9581 16.9958 13.285C16.2081 13.612 15.5113 14.0726 14.9054 14.667C14.3298 15.2316 13.8753 15.9003 13.5421 16.673C13.2088 17.4457 13.0422 18.2778 13.0422 19.1694V54.6694H26.039L26.039 67.6695H13.0422L13.0422 79.485H0V19.1694C0 16.5244 0.499876 14.0429 1.49963 11.7248C2.52967 9.377 3.92327 7.34126 5.68041 5.61756C7.46784 3.86414 9.54308 2.49707 11.9061 1.51635C14.2995 0.505903 16.8443 0 19.5406 0Z" fill="white"/>
</svg>
