<svg width="98" height="78" viewBox="0 0 98 78" fill="none" xmlns="http://www.w3.org/2000/svg">
<path d="M78.139 13.1831C80.8353 13.1831 83.365 13.6883 85.7281 14.6988C88.1214 15.6795 90.1967 17.0466 91.9538 18.8C93.7412 20.5237 95.1348 22.5594 96.1346 24.9072C97.1646 27.2253 97.6796 29.7068 97.6796 32.3518V78.0001H84.6829V32.3518C84.6829 31.4602 84.5011 30.6281 84.1376 29.8554C83.8043 29.0827 83.3347 28.4141 82.7288 27.8494C82.1532 27.255 81.4715 26.7944 80.6839 26.4675C79.8962 26.1406 79.0479 25.9771 78.139 25.9771C77.2302 25.9771 76.3819 26.1406 75.5942 26.4675C74.8065 26.7944 74.1097 27.255 73.5038 27.8494C72.9282 28.4141 72.4738 29.0827 72.1405 29.8554C71.8073 30.6281 71.6407 31.4602 71.6407 32.3518V78.0001H58.5984V32.3518C58.5984 31.4602 58.4318 30.6281 58.0986 29.8554C57.7653 29.0827 57.2957 28.4141 56.6898 27.8494C56.1142 27.255 55.4326 26.7944 54.6449 26.4675C53.8572 26.1406 53.0089 25.9771 52.1001 25.9771C51.1912 25.9771 50.3429 26.1406 49.5552 26.4675C48.7676 26.7944 48.0708 27.255 47.4648 27.8494C46.8892 28.4141 46.4348 29.0827 46.1016 29.8554C45.7683 30.6281 45.6017 31.4602 45.6017 32.3518V78.0001H32.5595V32.3518C32.5595 29.7068 33.0593 27.2253 34.0591 24.9072C35.0891 22.5594 36.4827 20.5237 38.2399 18.8C40.0273 17.0466 42.1025 15.6795 44.4656 14.6988C46.8589 13.6883 49.4038 13.1831 52.1001 13.1831C54.5237 13.1831 56.8565 13.614 59.0983 14.4759C61.3402 15.308 63.3548 16.5265 65.1423 18.1313C66.9297 16.5265 68.9292 15.308 71.1408 14.4759C73.3826 13.614 75.7154 13.1831 78.139 13.1831Z" fill="#7785FF"/>
<path d="M31.468 37.7141H15.734V52.362H31.468V37.7141Z" fill="white"/>
<path d="M32.7289 1.82384C29.8782 0.607945 26.8264 0 23.5736 0C20.6497 0 17.8355 0.518542 15.131 1.55562C12.4629 2.55695 9.28248 4.8278 7.12614 6.75892C7.12614 6.75892 3.11554 10.8753 1.56427 14.1079C0.0129992 17.3405 0.0175433 23.0662 0.0175433 23.0662L0 77.9958H15.734V52.362V37.7141V23.0662C15.734 21.9933 15.935 20.992 16.3371 20.0622C16.7391 19.1324 17.2873 18.3278 17.9817 17.6483C18.7127 16.9331 19.5533 16.3788 20.5036 15.9854C21.4538 15.592 22.4772 15.3953 23.5736 15.3953C24.6701 15.3953 25.6934 15.592 26.6437 15.9854C27.5939 16.3788 28.4162 16.9331 29.1107 17.6483C29.8416 18.3278 30.4081 19.1324 30.8101 20.0622C31.2487 20.992 31.468 21.9933 31.468 23.0662V37.7141V52.362V77.9958H47.1472V23.0662C47.1472 19.8834 46.5259 16.8973 45.2833 14.1079C44.0772 11.2827 42.3959 8.83309 40.2396 6.75892C38.1198 4.64899 35.6162 3.00396 32.7289 1.82384Z" fill="white"/>
</svg>
